<svg width="100%" height="100%" overflow="visible" style="display: block;" viewBox="0 0 20 20" fill="none" xmlns="http://www.w3.org/2000/svg">
<g id="building-4">
<path id="Vector" d="M0.833333 18.3333H19.1667" stroke="var(--stroke-0, #4137F9)" stroke-width="1.3" stroke-miterlimit="10" stroke-linecap="round" stroke-linejoin="round"/>
<path id="Vector_2" d="M16.4834 18.3417V14.625" stroke="var(--stroke-0, #4137F9)" stroke-width="1.3" stroke-miterlimit="10" stroke-linecap="round" stroke-linejoin="round"/>
<path id="Vector_3" d="M16.5 9.07501C15.4833 9.07501 14.6666 9.89169 14.6666 10.9084V12.8C14.6666 13.8167 15.4833 14.6333 16.5 14.6333C17.5167 14.6333 18.3333 13.8167 18.3333 12.8V10.9084C18.3333 9.89169 17.5167 9.07501 16.5 9.07501Z" stroke="var(--stroke-0, #4137F9)" stroke-width="1.3" stroke-miterlimit="10" stroke-linecap="round" stroke-linejoin="round"/>
<path id="Vector_4" d="M1.74998 18.3333V5.02502C1.74998 3.35002 2.58336 2.50834 4.24169 2.50834H9.43334C11.0917 2.50834 11.9167 3.35002 11.9167 5.02502V18.3333" stroke="var(--stroke-0, #4137F9)" stroke-width="1.3" stroke-miterlimit="10" stroke-linecap="round" stroke-linejoin="round"/>
<path id="Vector_5" d="M4.83332 6.875H8.95833" stroke="var(--stroke-0, #4137F9)" stroke-width="1.3" stroke-miterlimit="10" stroke-linecap="round" stroke-linejoin="round"/>
<path id="Vector_6" d="M4.83332 10H8.95833" stroke="var(--stroke-0, #4137F9)" stroke-width="1.5" stroke-miterlimit="10" stroke-linecap="round" stroke-linejoin="round"/>
<path id="Vector_7" d="M6.875 18.3333V15.2083" stroke="var(--stroke-0, #4137F9)" stroke-width="1.5" stroke-miterlimit="10" stroke-linecap="round" stroke-linejoin="round"/>
<g id="Vector_8" opacity="0">
</g>
</g>
</svg>
