<svg width="100%" height="100%" overflow="visible" style="display: block;" viewBox="0 0 20 20" fill="none" xmlns="http://www.w3.org/2000/svg">
<g id="money-change">
<path id="Vector" d="M14.1667 3.33333H5.83333C3.33333 3.33333 1.66667 4.58333 1.66667 7.5V10.4667C1.66667 10.775 1.98333 10.9667 2.25833 10.8417C3.075 10.4667 4.01667 10.325 5.00833 10.5C7.2 10.8917 8.80833 12.925 8.75 15.15C8.74167 15.5 8.69167 15.8417 8.6 16.175C8.53333 16.4333 8.74167 16.675 9.00833 16.675H14.1667C16.6667 16.675 18.3333 15.425 18.3333 12.5083V7.5C18.3333 4.58333 16.6667 3.33333 14.1667 3.33333ZM10 12.0833C8.85 12.0833 7.91667 11.15 7.91667 10C7.91667 8.85 8.85 7.91667 10 7.91667C11.15 7.91667 12.0833 8.85 12.0833 10C12.0833 11.15 11.15 12.0833 10 12.0833ZM16.0417 11.6667C16.0417 12.0083 15.7583 12.2917 15.4167 12.2917C15.075 12.2917 14.7917 12.0083 14.7917 11.6667V8.33333C14.7917 7.99167 15.075 7.70833 15.4167 7.70833C15.7583 7.70833 16.0417 7.99167 16.0417 8.33333V11.6667Z" fill="var(--fill-0, #6549FB)"/>
<g id="Vector_2" opacity="0">
</g>
<path id="Vector_3" d="M4.16667 11.6667C3.125 11.6667 2.18333 12.1583 1.575 12.9083C1.10833 13.4833 0.833333 14.2083 0.833333 15C0.833333 16.8417 2.33333 18.3333 4.16667 18.3333C5.61667 18.3333 6.85833 17.4083 7.30833 16.1083C7.43333 15.7667 7.5 15.3917 7.5 15C7.5 13.1667 6.00833 11.6667 4.16667 11.6667ZM6.13333 16.45C6.11667 16.5 6.08333 16.55 6.05 16.5833L5.45 17.175C5.375 17.2583 5.275 17.2917 5.16667 17.2917C5.05833 17.2917 4.95 17.2583 4.875 17.175C4.74167 17.05 4.725 16.85 4.80833 16.7H3.13333C2.6 16.7 2.16667 16.2667 2.16667 15.725V15.6417C2.16667 15.4083 2.35 15.2333 2.575 15.2333C2.8 15.2333 2.98333 15.4083 2.98333 15.6417V15.725C2.98333 15.8167 3.05 15.8917 3.14167 15.8917H4.81667C4.73333 15.7333 4.75 15.5417 4.88333 15.4083C5.04167 15.25 5.3 15.25 5.45 15.4083L6.05 16.0083C6.08333 16.0417 6.11667 16.0917 6.14167 16.1417C6.175 16.2333 6.175 16.35 6.13333 16.45ZM6.16667 14.3583C6.16667 14.5917 5.98333 14.7667 5.75833 14.7667C5.53333 14.7667 5.35 14.5917 5.35 14.3583V14.275C5.35 14.1833 5.28333 14.1083 5.19167 14.1083H3.525C3.60833 14.2667 3.59167 14.4583 3.45833 14.5917C3.38333 14.6667 3.28333 14.7083 3.16667 14.7083C3.06667 14.7083 2.95833 14.6667 2.88333 14.5917L2.28333 13.9917C2.25 13.9583 2.21667 13.9083 2.19167 13.8583C2.15833 13.7583 2.15833 13.65 2.19167 13.55C2.21667 13.5083 2.24167 13.45 2.28333 13.4167L2.88333 12.825C3.04167 12.6583 3.3 12.6583 3.45 12.825C3.58333 12.95 3.6 13.15 3.51667 13.3H5.19167C5.725 13.3 6.15833 13.7333 6.15833 14.275V14.3583H6.16667Z" fill="var(--fill-0, #6549FB)"/>
</g>
</svg>
