<svg width="100%" height="100%" overflow="visible" style="display: block;" viewBox="0 0 20 20" fill="none" xmlns="http://www.w3.org/2000/svg">
<g id="coin">
<path id="Vector" d="M18.2667 13.9583C17.9917 16.175 16.175 17.9917 13.9583 18.2667C12.6167 18.4333 11.3667 18.0667 10.3917 17.35C9.83333 16.9417 9.96667 16.075 10.6333 15.875C13.1417 15.1167 15.1167 13.1333 15.8833 10.625C16.0833 9.96667 16.95 9.83333 17.3583 10.3833C18.0667 11.3667 18.4333 12.6167 18.2667 13.9583Z" fill="var(--fill-0, #0B9D60)"/>
<path id="Vector_2" d="M8.325 1.66667C4.65 1.66667 1.66667 4.65 1.66667 8.325C1.66667 12 4.65 14.9833 8.325 14.9833C12 14.9833 14.9833 12 14.9833 8.325C14.975 4.65 12 1.66667 8.325 1.66667ZM7.54167 7.39167L9.55 8.09167C10.275 8.35 10.625 8.85833 10.625 9.64167C10.625 10.5417 9.90833 11.2833 9.03333 11.2833H8.95833V11.325C8.95833 11.6667 8.675 11.95 8.33333 11.95C7.99167 11.95 7.70833 11.6667 7.70833 11.325V11.275C6.78333 11.2333 6.04167 10.4583 6.04167 9.49167C6.04167 9.15 6.325 8.86667 6.66667 8.86667C7.00833 8.86667 7.29167 9.15 7.29167 9.49167C7.29167 9.79167 7.50833 10.0333 7.775 10.0333H9.025C9.21667 10.0333 9.36667 9.85833 9.36667 9.64167C9.36667 9.35 9.31667 9.33333 9.125 9.26667L7.11667 8.56667C6.4 8.31667 6.04167 7.80833 6.04167 7.01667C6.04167 6.11667 6.75833 5.375 7.63333 5.375H7.70833V5.34167C7.70833 5 7.99167 4.71667 8.33333 4.71667C8.675 4.71667 8.95833 5 8.95833 5.34167V5.39167C9.88333 5.43333 10.625 6.20833 10.625 7.175C10.625 7.51667 10.3417 7.8 10 7.8C9.65833 7.8 9.375 7.51667 9.375 7.175C9.375 6.875 9.15833 6.63333 8.89167 6.63333H7.64167C7.45 6.63333 7.3 6.80833 7.3 7.025C7.29167 7.30833 7.34167 7.325 7.54167 7.39167Z" fill="var(--fill-0, #0B9D60)"/>
<g id="Vector_3" opacity="0">
</g>
</g>
</svg>
