<svg width="100%" height="100%" overflow="visible" style="display: block;" viewBox="0 0 20 20" fill="none" xmlns="http://www.w3.org/2000/svg">
<g id="favorite-chart">
<g id="Vector" opacity="0">
</g>
<path id="Vector_2" d="M15.9333 12.45L16.2 12.9917C16.3333 13.2583 16.675 13.5083 16.9583 13.5583L17.3167 13.6167C18.4083 13.8 18.6583 14.6 17.8833 15.3833L17.55 15.7167C17.325 15.9417 17.2083 16.375 17.275 16.6917L17.3167 16.8917C17.6167 18.2083 16.9167 18.7167 15.775 18.025L15.5333 17.875C15.2417 17.7 14.7583 17.7 14.4667 17.875L14.225 18.025C13.075 18.7167 12.3833 18.2083 12.6833 16.8917L12.725 16.6917C12.7917 16.3833 12.675 15.9417 12.45 15.7167L12.1167 15.3833C11.3417 14.5917 11.5917 13.8 12.6833 13.6167L13.0417 13.5583C13.3333 13.5083 13.6667 13.2583 13.8 12.9917L14.0667 12.45C14.5833 11.4083 15.4167 11.4083 15.9333 12.45Z" fill="var(--fill-0, #4137F9)"/>
<path id="Vector_3" d="M13.4917 1.66667H6.50833C3.475 1.66667 1.66667 3.475 1.66667 6.50833V13.4917C1.66667 16.525 3.475 18.3333 6.50833 18.3333H10.9083C11.2 18.3333 11.4083 18.0333 11.375 17.7417C11.3417 17.425 11.3583 17.05 11.4583 16.6167C11.475 16.5583 11.4583 16.4917 11.4083 16.4417L11.225 16.2583C10.5167 15.5417 10.2583 14.675 10.5083 13.8833C10.7667 13.1 11.4833 12.55 12.475 12.3833L12.725 12.3417L12.95 11.8917C13.4083 10.9583 14.1583 10.4167 15 10.4167C15.8417 10.4167 16.5917 10.9583 17.05 11.8917L17.175 12.15C17.2333 12.275 17.35 12.3583 17.4833 12.3833C17.5583 12.4 17.6333 12.4167 17.7083 12.4333C18 12.5083 18.3333 12.275 18.3333 11.9667V6.50833C18.3333 3.475 16.525 1.66667 13.4917 1.66667ZM13.55 7.46667L11.625 9.95C11.3833 10.2583 11.0417 10.4583 10.65 10.5C10.2667 10.55 9.875 10.4417 9.575 10.2L8.05 9.01667C7.99167 8.96667 7.925 8.96667 7.89167 8.975C7.85833 8.975 7.8 8.99167 7.75 9.05833L5.76667 11.6333C5.64167 11.7917 5.45833 11.875 5.26667 11.875C5.13333 11.875 5 11.8333 4.88333 11.7417C4.60833 11.5333 4.55833 11.1417 4.76667 10.8667L6.75 8.29167C6.99167 7.98333 7.33333 7.78333 7.725 7.73333C8.11667 7.68333 8.5 7.79167 8.80833 8.03333L10.3333 9.23333C10.3917 9.28333 10.45 9.275 10.4917 9.275C10.525 9.275 10.5833 9.25833 10.6333 9.19167L12.5583 6.70833C12.7667 6.43333 13.1583 6.38333 13.4333 6.6C13.7167 6.80833 13.7583 7.2 13.55 7.46667Z" fill="var(--fill-0, #4137F9)"/>
</g>
</svg>
