<svg width="100%" height="100%" overflow="visible" style="display: block;" viewBox="0 0 24.0013 24.5" fill="none" xmlns="http://www.w3.org/2000/svg">
<path id="Vector" d="M10 0C10.1989 0 10.3897 0.0790177 10.5303 0.21967C10.671 0.360322 10.75 0.551088 10.75 0.75V1.5H15.25C15.9793 1.5 16.6788 1.78973 17.1945 2.30546C17.7103 2.82118 18 3.52065 18 4.25V9.75C18 10.235 17.875 10.69 17.654 11.086L17.489 10.589C17.3764 10.2695 17.171 9.99093 16.899 9.789C16.6215 9.59178 16.2895 9.48582 15.949 9.48582C15.6085 9.48582 15.2765 9.59178 14.999 9.789C14.7322 9.9853 14.5302 10.257 14.419 10.569L14 12.12C13.9573 12.2533 13.9023 12.3803 13.835 12.501H4.75C4.38878 12.501 4.0311 12.4298 3.69739 12.2916C3.36368 12.1533 3.06048 11.9507 2.8051 11.6952C2.54973 11.4397 2.34719 11.1364 2.20904 10.8027C2.0709 10.4689 1.99987 10.1112 2 9.75V4.25C2 3.52065 2.28973 2.82118 2.80546 2.30546C3.32118 1.78973 4.02065 1.5 4.75 1.5H9.25V0.75C9.25 0.551088 9.32902 0.360322 9.46967 0.21967C9.61032 0.0790177 9.80109 0 10 0ZM10.3 14.59C10.32 14.5587 10.342 14.5287 10.366 14.5H2.75C2.02065 14.5 1.32118 14.7897 0.805456 15.3055C0.289731 15.8212 0 16.5207 0 17.25V18C0 19.977 0.961 21.642 2.717 22.78C4.444 23.897 6.917 24.5 10 24.5C13.083 24.5 15.556 23.898 17.283 22.78C17.3743 22.72 17.4637 22.659 17.551 22.597C17.4339 22.5119 17.3318 22.4078 17.249 22.289C17.0884 22.0571 17.0016 21.7821 17 21.5C17.002 21.3713 17.022 21.2447 17.06 21.12L16.93 21.23C16.6564 21.4183 16.3321 21.5192 16 21.5192C15.6679 21.5192 15.3436 21.4183 15.07 21.23C14.798 21.0281 14.5926 20.7495 14.48 20.43L13.98 18.9C13.9066 18.6677 13.7914 18.4508 13.64 18.26C13.5849 18.1859 13.5248 18.1158 13.46 18.05C13.2249 17.8178 12.9415 17.6403 12.63 17.53L11.07 17.03C10.7568 16.9208 10.4869 16.714 10.3 16.44C10.1056 16.1708 10.0009 15.8471 10.0009 15.515C10.0009 15.1829 10.1056 14.8592 10.3 14.59ZM7 8.5C7.39782 8.5 7.77936 8.34196 8.06066 8.06066C8.34196 7.77936 8.5 7.39782 8.5 7C8.5 6.60218 8.34196 6.22064 8.06066 5.93934C7.77936 5.65804 7.39782 5.5 7 5.5C6.60218 5.5 6.22064 5.65804 5.93934 5.93934C5.65804 6.22064 5.5 6.60218 5.5 7C5.5 7.39782 5.65804 7.77936 5.93934 8.06066C6.22064 8.34196 6.60218 8.5 7 8.5ZM14.5 7C14.5 6.60218 14.342 6.22064 14.0607 5.93934C13.7794 5.65804 13.3978 5.5 13 5.5C12.6022 5.5 12.2206 5.65804 11.9393 5.93934C11.658 6.22064 11.5 6.60218 11.5 7C11.5 7.39782 11.658 7.77936 11.9393 8.06066C12.2206 8.34196 12.6022 8.5 13 8.5C13.3978 8.5 13.7794 8.34196 14.0607 8.06066C14.342 7.77936 14.5 7.39782 14.5 7ZM14.171 17.328C14.5177 17.6765 14.7782 18.1011 14.932 18.568L15.43 20.097C15.4719 20.2147 15.5491 20.3165 15.6512 20.3885C15.7532 20.4605 15.8751 20.4992 16 20.4992C16.1249 20.4992 16.2468 20.4605 16.3488 20.3885C16.4509 20.3165 16.5281 20.2147 16.57 20.097L17.068 18.567C17.2227 18.1018 17.4839 17.6791 17.8308 17.3325C18.1776 16.986 18.6006 16.7253 19.066 16.571L20.596 16.074C20.7141 16.0326 20.8165 15.9555 20.8889 15.8534C20.9613 15.7513 21.0002 15.6292 21.0002 15.504C21.0002 15.3788 20.9613 15.2567 20.8889 15.1546C20.8165 15.0525 20.7141 14.9754 20.596 14.934L20.566 14.926L19.035 14.429C18.5696 14.2747 18.1466 14.014 17.7998 13.6675C17.4529 13.3209 17.1917 12.8982 17.037 12.433L16.54 10.903C16.4986 10.7849 16.4215 10.6825 16.3194 10.6101C16.2173 10.5377 16.0952 10.4988 15.97 10.4988C15.8448 10.4988 15.7227 10.5377 15.6206 10.6101C15.5185 10.6825 15.4414 10.7849 15.4 10.903L14.902 12.433L14.889 12.471C14.7337 12.9246 14.4768 13.3368 14.138 13.6761C13.7992 14.0155 13.3874 14.273 12.934 14.429L11.404 14.926C11.2859 14.9674 11.1835 15.0445 11.1111 15.1466C11.0387 15.2487 10.9998 15.3708 10.9998 15.496C10.9998 15.6212 11.0387 15.7433 11.1111 15.8454C11.1835 15.9475 11.2859 16.0246 11.404 16.066L12.934 16.563C13.401 16.718 13.824 16.981 14.171 17.328ZM22.821 20.858L23.739 21.156L23.758 21.16C23.8291 21.1847 23.8907 21.2308 23.9343 21.2921C23.9779 21.3534 24.0013 21.4268 24.0013 21.502C24.0013 21.5772 23.9779 21.6506 23.9343 21.7119C23.8907 21.7732 23.8291 21.8193 23.758 21.844L22.839 22.142C22.5602 22.2354 22.307 22.3922 22.0991 22.6001C21.8912 22.808 21.7344 23.0612 21.641 23.34L21.342 24.258C21.3169 24.3286 21.2705 24.3897 21.2093 24.4329C21.1481 24.4761 21.0749 24.4993 21 24.4993C20.9251 24.4993 20.8519 24.4761 20.7907 24.4329C20.7295 24.3897 20.6831 24.3286 20.658 24.258L20.359 23.34C20.2668 23.0601 20.1105 22.8057 19.9025 22.597C19.6945 22.3883 19.4406 22.2311 19.161 22.138L18.242 21.84C18.1709 21.8153 18.1093 21.7692 18.0657 21.7079C18.0221 21.6466 17.9987 21.5732 17.9987 21.498C17.9987 21.4228 18.0221 21.3494 18.0657 21.2881C18.1093 21.2268 18.1709 21.1807 18.242 21.156L19.161 20.858C19.4364 20.7623 19.6861 20.6044 19.8907 20.3966C20.0954 20.1889 20.2494 19.9368 20.341 19.66L20.64 18.742C20.6651 18.6714 20.7115 18.6103 20.7727 18.5671C20.8339 18.5239 20.9071 18.5007 20.982 18.5007C21.0569 18.5007 21.1301 18.5239 21.1913 18.5671C21.2525 18.6103 21.2989 18.6714 21.324 18.742L21.622 19.66C21.7148 19.9392 21.8715 20.193 22.0797 20.4009C22.2878 20.6089 22.5417 20.7654 22.821 20.858Z" fill="var(--fill-0, white)"/>
</svg>
