<svg preserveAspectRatio="none" width="100%" height="100%" overflow="visible" style="display: block;" viewBox="0 0 18.6667 23.3333" fill="none" xmlns="http://www.w3.org/2000/svg">
<path id="Vector" d="M18.6667 7L11.6667 0H2.33333C1.71449 0 1.121 0.245832 0.683417 0.683417C0.245833 1.121 0 1.71449 0 2.33333V21C0 21.6188 0.245833 22.2123 0.683417 22.6499C1.121 23.0875 1.71449 23.3333 2.33333 23.3333H16.3333C16.9522 23.3333 17.5457 23.0875 17.9832 22.6499C18.4208 22.2123 18.6667 21.6188 18.6667 21V7ZM5.83333 19.8333H3.5V9.33333H5.83333V19.8333ZM10.5 19.8333H8.16667V12.8333H10.5V19.8333ZM15.1667 19.8333H12.8333V16.3333H15.1667V19.8333ZM11.6667 8.16667H10.5V2.33333L16.3333 8.16667H11.6667Z" fill="var(--fill-0, white)"/>
</svg>
