<svg width="100%" height="100%" overflow="visible" style="display: block;" viewBox="0 0 16 16" fill="none" xmlns="http://www.w3.org/2000/svg">
<g id="location">
<path id="Vector" d="M8 8.95333C9.14875 8.95333 10.08 8.02209 10.08 6.87333C10.08 5.72458 9.14875 4.79333 8 4.79333C6.85125 4.79333 5.92 5.72458 5.92 6.87333C5.92 8.02209 6.85125 8.95333 8 8.95333Z" stroke="var(--stroke-0, #3E4265)" stroke-width="1.1"/>
<path id="Vector_2" d="M2.41333 5.66C3.72667 -0.113333 12.28 -0.106666 13.5867 5.66667C14.3533 9.05333 12.2467 11.92 10.4 13.6933C9.06 14.9867 6.94 14.9867 5.59333 13.6933C3.75333 11.92 1.64667 9.04667 2.41333 5.66Z" stroke="var(--stroke-0, #3E4265)" stroke-width="1.1"/>
<path id="Vector_3" opacity="0" d="M0.549805 15.4502L0.549805 0.549805L15.4502 0.549805L15.4502 15.4502L0.549805 15.4502Z" stroke="var(--stroke-0, #3E4265)" stroke-width="1.1"/>
</g>
</svg>
