<svg width="100%" height="100%" overflow="visible" style="display: block;" viewBox="0 0 15.2009 16.062" fill="none" xmlns="http://www.w3.org/2000/svg">
<g id="Group">
<g id="Vector">
</g>
<path id="Vector_2" d="M8.57472 0.5625L15.0502 11.778C15.149 11.949 15.2009 12.143 15.2009 12.3405C15.2009 12.538 15.149 12.732 15.0502 12.903C14.9515 13.074 14.8095 13.216 14.6385 13.3148C14.4674 13.4135 14.2734 13.4655 14.076 13.4655H1.12497C0.927495 13.4655 0.733499 13.4135 0.562481 13.3148C0.391464 13.216 0.24945 13.074 0.150714 12.903C0.0519782 12.732 -1.25418e-06 12.538 0 12.3405C1.25423e-06 12.143 0.0519832 11.949 0.150721 11.778L6.62622 0.5625C7.05897 -0.1875 8.14122 -0.1875 8.57472 0.5625ZM7.60047 9.4515C7.40156 9.4515 7.21079 9.53052 7.07014 9.67117C6.92949 9.81182 6.85047 10.0026 6.85047 10.2015C6.85047 10.4004 6.92949 10.5912 7.07014 10.7318C7.21079 10.8725 7.40156 10.9515 7.60047 10.9515C7.79938 10.9515 7.99015 10.8725 8.1308 10.7318C8.27145 10.5912 8.35047 10.4004 8.35047 10.2015C8.35047 10.0026 8.27145 9.81182 8.1308 9.67117C7.99015 9.53052 7.79938 9.4515 7.60047 9.4515ZM7.60047 4.2015C7.41677 4.20152 7.23947 4.26897 7.10219 4.39104C6.96492 4.51311 6.87721 4.68131 6.85572 4.86375L6.85047 4.9515V7.9515C6.85068 8.14266 6.92388 8.32652 7.05511 8.46553C7.18633 8.60453 7.36569 8.68818 7.55652 8.69938C7.74735 8.71058 7.93526 8.64849 8.08185 8.5258C8.22844 8.40311 8.32264 8.22907 8.34522 8.03925L8.35047 7.9515V4.9515C8.35047 4.75259 8.27145 4.56182 8.1308 4.42117C7.99015 4.28052 7.79938 4.2015 7.60047 4.2015Z" fill="var(--fill-0, #F5222D)"/>
</g>
</svg>
