<svg preserveAspectRatio="none" width="100%" height="100%" overflow="visible" style="display: block;" viewBox="0 0 18 18" fill="none" xmlns="http://www.w3.org/2000/svg">
<g id="famicons:water">
<path id="Vector" d="M9.32062 2.11359C9.28102 2.06734 9.23187 2.03021 9.17656 2.00475C9.12124 1.97929 9.06107 1.96611 9.00018 1.96611C8.93928 1.96611 8.87911 1.97929 8.8238 2.00475C8.76848 2.03021 8.71933 2.06734 8.67973 2.11359C7.56668 3.41543 3.9375 7.91613 3.9375 11.25C3.9375 14.3568 5.89359 16.3125 9 16.3125C12.1064 16.3125 14.0625 14.3568 14.0625 11.25C14.0625 7.91613 10.4333 3.41543 9.32062 2.11359ZM9.5625 14.4844C9.49493 14.4845 9.42831 14.4684 9.36825 14.4375C9.3082 14.4065 9.25645 14.3616 9.21738 14.3064C9.17831 14.2513 9.15305 14.1876 9.14373 14.1207C9.13441 14.0538 9.1413 13.9856 9.16383 13.9219C9.1926 13.8388 9.24685 13.7668 9.31887 13.7163C9.3909 13.6658 9.47701 13.6393 9.56496 13.6406C10.1234 13.6394 10.6586 13.4171 11.0534 13.0222C11.4483 12.6273 11.6707 12.0921 11.6719 11.5337C11.6706 11.4458 11.6971 11.3596 11.7476 11.2876C11.7981 11.2156 11.87 11.1613 11.9531 11.1326C12.0168 11.1101 12.085 11.1032 12.1519 11.1125C12.2189 11.1218 12.2826 11.1471 12.3377 11.1861C12.3928 11.2252 12.4378 11.2769 12.4687 11.337C12.4997 11.3971 12.5158 11.4637 12.5156 11.5312C12.5148 12.3142 12.2034 13.0649 11.6497 13.6185C11.0961 14.1721 10.3455 14.4835 9.5625 14.4844Z" fill="var(--fill-0, #0598F8)"/>
</g>
</svg>
