<svg width="100%" height="100%" overflow="visible" style="display: block;" viewBox="0 0 14.625 14.625" fill="none" xmlns="http://www.w3.org/2000/svg">
<g id="Group">
<path id="Vector" d="M7.8945 7.2H6.75V5.625H7.8945C8.1645 5.625 8.3295 5.724 8.436 5.84925C8.55225 5.98575 8.625 6.18825 8.625 6.4125C8.625 6.63675 8.55225 6.83925 8.436 6.97575C8.3295 7.101 8.16375 7.2 7.8945 7.2Z" fill="var(--fill-0, #4137F9)"/>
<path id="Vector_2" d="M0 7.3125C0 3.27375 3.27375 0 7.3125 0C11.3513 0 14.625 3.27375 14.625 7.3125C14.625 11.3513 11.3513 14.625 7.3125 14.625C3.27375 14.625 0 11.3513 0 7.3125ZM6.1875 4.5C6.03832 4.5 5.89524 4.55926 5.78975 4.66475C5.68426 4.77024 5.625 4.91332 5.625 5.0625V9.5625C5.625 9.71168 5.68426 9.85476 5.78975 9.96025C5.89524 10.0657 6.03832 10.125 6.1875 10.125C6.33668 10.125 6.47976 10.0657 6.58525 9.96025C6.69074 9.85476 6.75 9.71168 6.75 9.5625V8.325H7.8945C8.487 8.325 8.96775 8.0865 9.2925 7.7055C9.6075 7.33575 9.75 6.86325 9.75 6.4125C9.75 5.96175 9.6075 5.48925 9.2925 5.1195C8.96775 4.7385 8.48625 4.5 7.8945 4.5H6.1875Z" fill="var(--fill-0, #4137F9)"/>
</g>
</svg>
