<svg preserveAspectRatio="none" width="100%" height="100%" overflow="visible" style="display: block;" viewBox="0 0 18 18" fill="none" xmlns="http://www.w3.org/2000/svg">
<g id="material-symbols:event-note">
<path id="Vector" d="M5.25 10.5V9H12.75V10.5H5.25ZM5.25 13.5V12H10.5V13.5H5.25ZM3.75 16.5C3.3375 16.5 2.9845 16.3533 2.691 16.0598C2.3975 15.7663 2.2505 15.413 2.25 15V4.5C2.25 4.0875 2.397 3.7345 2.691 3.441C2.985 3.1475 3.338 3.0005 3.75 3H4.5V1.5H6V3H12V1.5H13.5V3H14.25C14.6625 3 15.0158 3.147 15.3098 3.441C15.6038 3.735 15.7505 4.088 15.75 4.5V15C15.75 15.4125 15.6033 15.7658 15.3098 16.0598C15.0163 16.3538 14.663 16.5005 14.25 16.5H3.75ZM3.75 15H14.25V7.5H3.75V15Z" fill="var(--fill-0, #159B8F)"/>
</g>
</svg>
