<svg width="20" height="20" viewBox="0 0 20 20" fill="none" xmlns="http://www.w3.org/2000/svg"><path d="M11.775 9.45C12.1 8.08 10.908 6.89 9.542 7.217C8.9 7.375 8.375 7.9 8.217 8.542C7.892 9.908 9.083 11.1 10.45 10.775C11.1 10.617 11.625 10.092 11.775 9.45Z" stroke="#4137F9" stroke-width="1.3" stroke-linecap="round" stroke-linejoin="round"/><path d="M15.008 14.325C16.433 12.992 17.325 11.1 17.325 9C17.325 4.942 14.042 1.667 10 1.667C5.958 1.667 2.675 4.95 2.675 9C2.675 11.108 3.575 13.017 5.017 14.35" stroke="#4137F9" stroke-width="1.3" stroke-linecap="round" stroke-linejoin="round"/><path d="M6.667 12.125C5.9 11.308 5.425 10.208 5.425 9C5.425 6.467 7.475 4.417 10 4.417C12.525 4.417 14.575 6.467 14.575 9C14.575 10.208 14.1 11.3 13.333 12.125" stroke="#4137F9" stroke-width="1.3" stroke-linecap="round" stroke-linejoin="round"/><path d="M8.583 13.883L7.383 15.375C6.433 16.567 7.275 18.325 8.8 18.325H11.192C12.717 18.325 13.567 16.558 12.608 15.375L11.408 13.883C10.692 12.975 9.308 12.975 8.583 13.883Z" stroke="#4137F9" stroke-width="1.5" stroke-linecap="round" stroke-linejoin="round"/></svg>