<svg preserveAspectRatio="none" width="100%" height="100%" overflow="visible" style="display: block;" viewBox="0 0 20 20" fill="none" xmlns="http://www.w3.org/2000/svg">
<g id="category-2">
<path id="Vector" d="M14.1667 8.33333H15.8333C17.5 8.33333 18.3333 7.5 18.3333 5.83333V4.16667C18.3333 2.5 17.5 1.66667 15.8333 1.66667H14.1667C12.5 1.66667 11.6667 2.5 11.6667 4.16667V5.83333C11.6667 7.5 12.5 8.33333 14.1667 8.33333Z" stroke="var(--stroke-0, #171717)" stroke-width="1.3" stroke-miterlimit="10" stroke-linecap="round" stroke-linejoin="round"/>
<path id="Vector_2" d="M4.16667 18.3333H5.83333C7.5 18.3333 8.33333 17.5 8.33333 15.8333V14.1667C8.33333 12.5 7.5 11.6667 5.83333 11.6667H4.16667C2.5 11.6667 1.66667 12.5 1.66667 14.1667V15.8333C1.66667 17.5 2.5 18.3333 4.16667 18.3333Z" stroke="var(--stroke-0, #171717)" stroke-width="1.3" stroke-miterlimit="10" stroke-linecap="round" stroke-linejoin="round"/>
<path id="Vector_3" d="M5 8.33333C6.84095 8.33333 8.33333 6.84095 8.33333 5C8.33333 3.15905 6.84095 1.66667 5 1.66667C3.15905 1.66667 1.66667 3.15905 1.66667 5C1.66667 6.84095 3.15905 8.33333 5 8.33333Z" stroke="var(--stroke-0, #171717)" stroke-width="1.3" stroke-miterlimit="10" stroke-linecap="round" stroke-linejoin="round"/>
<path id="Vector_4" d="M15 18.3333C16.8409 18.3333 18.3333 16.8409 18.3333 15C18.3333 13.1591 16.8409 11.6667 15 11.6667C13.1591 11.6667 11.6667 13.1591 11.6667 15C11.6667 16.8409 13.1591 18.3333 15 18.3333Z" stroke="var(--stroke-0, #171717)" stroke-width="1.3" stroke-miterlimit="10" stroke-linecap="round" stroke-linejoin="round"/>
<g id="Vector_5" opacity="0">
</g>
</g>
</svg>
