<svg preserveAspectRatio="none" width="100%" height="100%" overflow="visible" style="display: block;" viewBox="0 0 20 20" fill="none" xmlns="http://www.w3.org/2000/svg">
<g id="messages">
<g id="Group">
<path id="Vector" d="M14.9833 8.99167V12.325C14.9833 12.5417 14.975 12.75 14.95 12.95C14.7583 15.2 13.4333 16.3167 10.9917 16.3167H10.6583C10.45 16.3167 10.25 16.4167 10.125 16.5833L9.12501 17.9167C8.68334 18.5083 7.96667 18.5083 7.525 17.9167L6.52499 16.5833C6.41666 16.4417 6.175 16.3167 5.99167 16.3167H5.65834C3.00001 16.3167 1.66667 15.6583 1.66667 12.325V8.99167C1.66667 6.55001 2.79167 5.22501 5.03334 5.03334C5.23334 5.00834 5.44167 5 5.65834 5H10.9917C13.65 5 14.9833 6.33334 14.9833 8.99167Z" stroke="var(--stroke-0, #171717)" stroke-width="1.3" stroke-miterlimit="10" stroke-linecap="round" stroke-linejoin="round"/>
</g>
<path id="Vector_2" d="M18.3159 5.65834V8.99167C18.3159 11.4417 17.1909 12.7583 14.9492 12.95C14.9742 12.75 14.9826 12.5417 14.9826 12.325V8.99167C14.9826 6.33334 13.6492 5 10.9909 5H5.65755C5.44089 5 5.23255 5.00834 5.03255 5.03334C5.22422 2.79167 6.54922 1.66667 8.99089 1.66667H14.3242C16.9825 1.66667 18.3159 3.00001 18.3159 5.65834Z" stroke="var(--stroke-0, #171717)" stroke-width="1.3" stroke-miterlimit="10" stroke-linecap="round" stroke-linejoin="round"/>
<path id="Vector_3" opacity="0" d="M19.3496 0.650391V19.3496H0.650391V0.650391H19.3496Z" stroke="var(--stroke-0, #171717)" stroke-width="1.3"/>
<path id="Vector_4" d="M11.2462 11.0417H11.2537" stroke="var(--stroke-0, #171717)" stroke-width="1.5" stroke-linecap="round" stroke-linejoin="round"/>
<path id="Vector_5" d="M8.32958 11.0417H8.33708" stroke="var(--stroke-0, #171717)" stroke-width="1.5" stroke-linecap="round" stroke-linejoin="round"/>
<path id="Vector_6" d="M5.41292 11.0417H5.42042" stroke="var(--stroke-0, #171717)" stroke-width="1.5" stroke-linecap="round" stroke-linejoin="round"/>
</g>
</svg>
