<svg preserveAspectRatio="none" width="100%" height="100%" overflow="visible" style="display: block;" viewBox="0 0 20 20" fill="none" xmlns="http://www.w3.org/2000/svg">
<g id="favorite-chart">
<path id="Vector" d="M18.3333 10.8333V7.5C18.3333 3.33333 16.6667 1.66667 12.5 1.66667H7.5C3.33333 1.66667 1.66667 3.33333 1.66667 7.5V12.5C1.66667 16.6667 3.33333 18.3333 7.5 18.3333H10.8333" stroke="var(--stroke-0, #171717)" stroke-width="1.3" stroke-linecap="round" stroke-linejoin="round"/>
<path id="Vector_2" d="M6.10832 12.075L8.09166 9.49999C8.37499 9.13333 8.9 9.06667 9.26666 9.35L10.7917 10.55C11.1583 10.8333 11.6833 10.7667 11.9667 10.4083L13.8917 7.925" stroke="var(--stroke-0, #171717)" stroke-width="1.3" stroke-linecap="round" stroke-linejoin="round"/>
<g id="Group">
<path id="Vector_3" d="M16.2333 13.1833L16.4667 13.6583C16.5833 13.8917 16.875 14.1083 17.1333 14.1583L17.45 14.2083C18.4 14.3667 18.625 15.0667 17.9417 15.7583L17.65 16.05C17.4583 16.25 17.35 16.6333 17.4083 16.9L17.45 17.075C17.7083 18.225 17.1 18.6667 16.1 18.0667L15.8833 17.9417C15.625 17.7917 15.2083 17.7917 14.95 17.9417L14.7333 18.0667C13.725 18.675 13.1167 18.225 13.3833 17.075L13.425 16.9C13.4833 16.6333 13.375 16.25 13.1833 16.05L12.8917 15.7583C12.2083 15.0667 12.4333 14.3667 13.3833 14.2083L13.7 14.1583C13.95 14.1167 14.25 13.8917 14.3667 13.6583L14.6 13.1833C15.05 12.275 15.7833 12.275 16.2333 13.1833Z" stroke="var(--stroke-0, #171717)" stroke-width="1.3" stroke-linecap="round" stroke-linejoin="round"/>
</g>
<g id="Vector_4" opacity="0">
</g>
</g>
</svg>
