<svg preserveAspectRatio="none" width="100%" height="100%" overflow="visible" style="display: block;" viewBox="0 0 20 20" fill="none" xmlns="http://www.w3.org/2000/svg">
<g id="document-filter">
<g id="Group">
<path id="Vector" d="M2.79165 1.66667H10.2083C10.825 1.66667 11.3333 2.17501 11.3333 2.79167V4.02499C11.3333 4.47499 11.05 5.03334 10.775 5.31667L8.35836 7.45C8.02502 7.73334 7.79999 8.29166 7.79999 8.74166V11.1583C7.79999 11.4917 7.575 11.9417 7.29167 12.1167L6.50833 12.625C5.775 13.075 4.76664 12.5667 4.76664 11.6667V8.69166C4.76664 8.29999 4.54166 7.79168 4.31666 7.50834L2.18333 5.25833C1.9 4.975 1.67501 4.47499 1.67501 4.13333V2.84167C1.66667 2.175 2.17498 1.66667 2.79165 1.66667Z" stroke="var(--stroke-0, #171717)" stroke-width="1.3" stroke-miterlimit="10" stroke-linecap="round" stroke-linejoin="round"/>
</g>
<path id="Vector_2" d="M1.66667 10V12.5C1.66667 16.6667 3.33333 18.3333 7.5 18.3333H12.5C16.6667 18.3333 18.3333 16.6667 18.3333 12.5V7.5C18.3333 4.9 17.6833 3.26666 16.175 2.41666C15.75 2.17499 14.9 1.99166 14.125 1.86666" stroke="var(--stroke-0, #171717)" stroke-width="1.3" stroke-linecap="round" stroke-linejoin="round"/>
<path id="Vector_3" d="M10.8333 10.8333H15" stroke="var(--stroke-0, #171717)" stroke-width="1.3" stroke-linecap="round" stroke-linejoin="round"/>
<path id="Vector_4" d="M9.16667 14.1667H15" stroke="var(--stroke-0, #171717)" stroke-width="1.3" stroke-linecap="round" stroke-linejoin="round"/>
<g id="Vector_5" opacity="0">
</g>
</g>
</svg>
