<svg preserveAspectRatio="none" width="100%" height="100%" overflow="visible" style="display: block;" viewBox="0 0 20 20" fill="none" xmlns="http://www.w3.org/2000/svg">
<g id="cpu-setting">
<path id="Vector" d="M16.6667 8C16.6667 4.66667 15.3333 3.33333 12 3.33333H8C4.66667 3.33333 3.33333 4.66667 3.33333 8V12C3.33333 15.3333 4.66667 16.6667 8 16.6667" stroke="var(--stroke-0, #171717)" stroke-width="1.3" stroke-linecap="round" stroke-linejoin="round"/>
<path id="Vector_2" d="M13.625 6.66667C13.1667 6.08333 12.4 5.83333 11.25 5.83333H8.75C6.66667 5.83333 5.83333 6.66667 5.83333 8.75V11.25C5.83333 12.4 6.08333 13.1667 6.65833 13.625" stroke="var(--stroke-0, #171717)" stroke-width="1.3" stroke-linecap="round" stroke-linejoin="round"/>
<path id="Vector_3" d="M6.675 3.33333V1.66667" stroke="var(--stroke-0, #171717)" stroke-width="1.3" stroke-linecap="round" stroke-linejoin="round"/>
<path id="Vector_4" d="M10 3.33333V1.66667" stroke="var(--stroke-0, #171717)" stroke-width="1.5" stroke-linecap="round" stroke-linejoin="round"/>
<path id="Vector_5" d="M13.3333 3.33333V1.66667" stroke="var(--stroke-0, #171717)" stroke-width="1.5" stroke-linecap="round" stroke-linejoin="round"/>
<path id="Vector_6" d="M16.6667 6.66667H18.3333" stroke="var(--stroke-0, #171717)" stroke-width="1.5" stroke-linecap="round" stroke-linejoin="round"/>
<path id="Vector_7" d="M6.675 16.6667V18.3333" stroke="var(--stroke-0, #171717)" stroke-width="1.5" stroke-linecap="round" stroke-linejoin="round"/>
<path id="Vector_8" d="M1.66667 6.66667H3.33333" stroke="var(--stroke-0, #171717)" stroke-width="1.5" stroke-linecap="round" stroke-linejoin="round"/>
<path id="Vector_9" d="M1.66667 10H3.33333" stroke="var(--stroke-0, #171717)" stroke-width="1.5" stroke-linecap="round" stroke-linejoin="round"/>
<path id="Vector_10" d="M1.66667 13.3333H3.33333" stroke="var(--stroke-0, #171717)" stroke-width="1.5" stroke-linecap="round" stroke-linejoin="round"/>
<path id="Vector_11" d="M13.925 15.4917C14.6568 15.4917 15.25 14.8984 15.25 14.1667C15.25 13.4349 14.6568 12.8417 13.925 12.8417C13.1932 12.8417 12.6 13.4349 12.6 14.1667C12.6 14.8984 13.1932 15.4917 13.925 15.4917Z" stroke="var(--stroke-0, #171717)" stroke-width="1.5" stroke-miterlimit="10" stroke-linecap="round" stroke-linejoin="round"/>
<path id="Vector_12" d="M9.50833 14.55V13.775C9.50833 13.3167 9.88333 12.9417 10.3417 12.9417C11.1417 12.9417 11.4667 12.375 11.0667 11.6833C10.8333 11.2833 10.975 10.7667 11.375 10.5417L12.1333 10.1C12.4833 9.89167 12.9333 10.0167 13.1417 10.3667L13.1917 10.45C13.5917 11.1417 14.2417 11.1417 14.6417 10.45L14.6917 10.3667C14.9 10.0167 15.35 9.9 15.7 10.1L16.4583 10.5417C16.8583 10.775 17 11.2833 16.7667 11.6833C16.3667 12.375 16.6917 12.9417 17.4917 12.9417C17.95 12.9417 18.325 13.3167 18.325 13.775V14.55C18.325 15.0083 17.95 15.3833 17.4917 15.3833C16.6917 15.3833 16.3667 15.95 16.7667 16.6417C17 17.0417 16.8583 17.5583 16.4583 17.7833L15.7 18.225C15.35 18.4333 14.9 18.3083 14.6917 17.9583L14.6417 17.875C14.2417 17.1833 13.5917 17.1833 13.1917 17.875L13.1417 17.9583C12.9333 18.3083 12.4833 18.425 12.1333 18.225L11.375 17.7833C10.975 17.55 10.8333 17.0417 11.0667 16.6417C11.4667 15.95 11.1417 15.3833 10.3417 15.3833C9.88333 15.3917 9.50833 15.0167 9.50833 14.55Z" stroke="var(--stroke-0, #171717)" stroke-width="1.5" stroke-miterlimit="10" stroke-linecap="round" stroke-linejoin="round"/>
<g id="Vector_13" opacity="0">
</g>
</g>
</svg>
