<svg width="20" height="20" viewBox="0 0 20 20" fill="none" xmlns="http://www.w3.org/2000/svg">
<path d="M11.7754 9.4495C12.1004 8.08283 10.9088 6.89112 9.5421 7.21612C8.90043 7.37445 8.37543 7.89948 8.2171 8.54114C7.8921 9.90781 9.08376 11.0995 10.4504 10.7745C11.1004 10.6161 11.6254 10.0912 11.7754 9.4495Z" stroke="#171717" stroke-width="1.3" stroke-linecap="round" stroke-linejoin="round"/>
<path d="M15.0081 14.3244C16.4331 12.991 17.3248 11.0993 17.3248 8.991C17.3248 4.941 14.0415 1.66602 9.9998 1.66602C5.95813 1.66602 2.6748 4.94933 2.6748 8.991C2.6748 11.1077 3.5748 13.016 5.01647 14.3493" stroke="#171717" stroke-width="1.3" stroke-linecap="round" stroke-linejoin="round"/>
<path d="M6.66648 12.1243C5.89981 11.3077 5.4248 10.2077 5.4248 8.99101C5.4248 6.46601 7.47481 4.41602 9.99981 4.41602C12.5248 4.41602 14.5748 6.46601 14.5748 8.99101C14.5748 10.2077 14.0998 11.2993 13.3331 12.1243" stroke="#171717" stroke-width="1.3" stroke-linecap="round" stroke-linejoin="round"/>
<path d="M8.58295 13.8824L7.38295 15.3741C6.43295 16.5658 7.27461 18.3241 8.79961 18.3241H11.1913C12.7163 18.3241 13.5663 16.5575 12.608 15.3741L11.4079 13.8824C10.6913 12.9741 9.30795 12.9741 8.58295 13.8824Z" stroke="#171717" stroke-width="1.5" stroke-linecap="round" stroke-linejoin="round"/>
</svg>
