<svg width="20" height="20" viewBox="0 0 20 20" fill="none" xmlns="http://www.w3.org/2000/svg">
<path d="M3.35033 4.97435C2.29199 6.37435 1.66699 8.11602 1.66699 9.99935C1.66699 14.5993 5.40033 18.3327 10.0003 18.3327C14.6003 18.3327 18.3337 14.5993 18.3337 9.99935C18.3337 5.39935 14.6003 1.66602 10.0003 1.66602" stroke="#171717" stroke-width="1.3" stroke-linecap="round" stroke-linejoin="round"/>
<path d="M4.16699 9.99935C4.16699 13.2243 6.77533 15.8327 10.0003 15.8327C13.2253 15.8327 15.8337 13.2243 15.8337 9.99935C15.8337 6.77435 13.2253 4.16602 10.0003 4.16602" stroke="#171717" stroke-width="1.3" stroke-linecap="round" stroke-linejoin="round"/>
<path d="M10 13.3327C11.8417 13.3327 13.3333 11.841 13.3333 9.99935C13.3333 8.15768 11.8417 6.66602 10 6.66602" stroke="#171717" stroke-width="1.3" stroke-linecap="round" stroke-linejoin="round"/>
</svg>
