<svg width="20" height="20" viewBox="0 0 20 20" fill="none" xmlns="http://www.w3.org/2000/svg">
<path d="M14.167 8.33268H15.8337C17.5003 8.33268 18.3337 7.49935 18.3337 5.83268V4.16602C18.3337 2.49935 17.5003 1.66602 15.8337 1.66602H14.167C12.5003 1.66602 11.667 2.49935 11.667 4.16602V5.83268C11.667 7.49935 12.5003 8.33268 14.167 8.33268Z" stroke="#171717" stroke-width="1.3" stroke-miterlimit="10" stroke-linecap="round" stroke-linejoin="round"/>
<path d="M4.16699 18.3327H5.83366C7.50033 18.3327 8.33366 17.4993 8.33366 15.8327V14.166C8.33366 12.4993 7.50033 11.666 5.83366 11.666H4.16699C2.50033 11.666 1.66699 12.4993 1.66699 14.166V15.8327C1.66699 17.4993 2.50033 18.3327 4.16699 18.3327Z" stroke="#171717" stroke-width="1.3" stroke-miterlimit="10" stroke-linecap="round" stroke-linejoin="round"/>
<path d="M5.00033 8.33268C6.84127 8.33268 8.33366 6.8403 8.33366 4.99935C8.33366 3.1584 6.84127 1.66602 5.00033 1.66602C3.15938 1.66602 1.66699 3.1584 1.66699 4.99935C1.66699 6.8403 3.15938 8.33268 5.00033 8.33268Z" stroke="#171717" stroke-width="1.3" stroke-miterlimit="10" stroke-linecap="round" stroke-linejoin="round"/>
<path d="M15.0003 18.3327C16.8413 18.3327 18.3337 16.8403 18.3337 14.9993C18.3337 13.1584 16.8413 11.666 15.0003 11.666C13.1594 11.666 11.667 13.1584 11.667 14.9993C11.667 16.8403 13.1594 18.3327 15.0003 18.3327Z" stroke="#171717" stroke-width="1.3" stroke-miterlimit="10" stroke-linecap="round" stroke-linejoin="round"/>
</svg>
