<svg width="20" height="20" viewBox="0 0 20 20" fill="none" xmlns="http://www.w3.org/2000/svg">
<path d="M14.9837 8.99167V12.325C14.9837 12.5417 14.9753 12.75 14.9503 12.95C14.7587 15.2 13.4337 16.3167 10.992 16.3167H10.6587C10.4503 16.3167 10.2503 16.4167 10.1253 16.5833L9.12534 17.9167C8.68367 18.5083 7.96699 18.5083 7.52532 17.9167L6.52531 16.5833C6.41698 16.4417 6.17533 16.3167 5.99199 16.3167H5.65867C3.00033 16.3167 1.66699 15.6583 1.66699 12.325V8.99167C1.66699 6.55001 2.792 5.22501 5.03367 5.03334C5.23367 5.00834 5.442 5 5.65867 5H10.992C13.6503 5 14.9837 6.33334 14.9837 8.99167Z" stroke="#171717" stroke-width="1.3" stroke-miterlimit="10" stroke-linecap="round" stroke-linejoin="round"/>
<path d="M18.3156 5.65769V8.99102C18.3156 11.441 17.1906 12.7577 14.9489 12.9494C14.9739 12.7494 14.9822 12.541 14.9822 12.3244V8.99102C14.9822 6.33269 13.6489 4.99935 10.9906 4.99935H5.65723C5.44056 4.99935 5.23223 5.00769 5.03223 5.03269C5.22389 2.79102 6.54889 1.66602 8.99056 1.66602H14.3239C16.9822 1.66602 18.3156 2.99936 18.3156 5.65769Z" stroke="#171717" stroke-width="1.3" stroke-miterlimit="10" stroke-linecap="round" stroke-linejoin="round"/>
<path d="M11.2459 11.0417H11.2534" stroke="#171717" stroke-width="1.5" stroke-linecap="round" stroke-linejoin="round"/>
<path d="M8.32991 11.0417H8.33741" stroke="#171717" stroke-width="1.5" stroke-linecap="round" stroke-linejoin="round"/>
<path d="M5.41292 11.0417H5.42042" stroke="#171717" stroke-width="1.5" stroke-linecap="round" stroke-linejoin="round"/>
</svg>
