<svg width="20" height="20" viewBox="0 0 20 20" fill="none" xmlns="http://www.w3.org/2000/svg">
<path d="M2.79154 1.66602H10.2082C10.8249 1.66602 11.3332 2.17435 11.3332 2.79102V4.02434C11.3332 4.47434 11.0499 5.03269 10.7749 5.31602L8.35826 7.44935C8.02492 7.73268 7.79989 8.29101 7.79989 8.74101V11.1577C7.79989 11.491 7.5749 11.941 7.29156 12.116L6.50823 12.6243C5.7749 13.0743 4.76654 12.566 4.76654 11.666V8.69101C4.76654 8.29934 4.54156 7.79102 4.31656 7.50769L2.18323 5.25768C1.89989 4.97435 1.67491 4.47434 1.67491 4.13268V2.84102C1.66657 2.17435 2.17488 1.66602 2.79154 1.66602Z" stroke="#171717" stroke-width="1.3" stroke-miterlimit="10" stroke-linecap="round" stroke-linejoin="round"/>
<path d="M1.66699 10.0005V12.5005C1.66699 16.6672 3.33366 18.3339 7.50033 18.3339H12.5003C16.667 18.3339 18.3337 16.6672 18.3337 12.5005V7.50053C18.3337 4.90053 17.6836 3.26719 16.1753 2.41719C15.7503 2.17552 14.9003 1.99219 14.1253 1.86719" stroke="#171717" stroke-width="1.3" stroke-linecap="round" stroke-linejoin="round"/>
<path d="M10.833 10.834H14.9997" stroke="#171717" stroke-width="1.3" stroke-linecap="round" stroke-linejoin="round"/>
<path d="M9.16699 14.166H15.0003" stroke="#171717" stroke-width="1.3" stroke-linecap="round" stroke-linejoin="round"/>
</svg>
