<svg width="20" height="20" viewBox="0 0 20 20" fill="none" xmlns="http://www.w3.org/2000/svg">
<path d="M6.66699 9.5C6.66699 10.1417 7.16699 10.6667 7.77533 10.6667H9.02533C9.55866 10.6667 9.99199 10.2083 9.99199 9.65C9.99199 9.04167 9.72533 8.825 9.33366 8.68333L7.33366 7.98333C6.93366 7.84167 6.66699 7.625 6.66699 7.01667C6.66699 6.45833 7.10033 6 7.63366 6H8.88366C9.50033 6.00833 10.0003 6.525 10.0003 7.16667" stroke="#171717" stroke-width="1.3" stroke-linecap="round" stroke-linejoin="round"/>
<path d="M8.33301 10.709V11.3257" stroke="#171717" stroke-width="1.3" stroke-linecap="round" stroke-linejoin="round"/>
<path d="M8.33301 5.3418V5.9918" stroke="#171717" stroke-width="1.3" stroke-linecap="round" stroke-linejoin="round"/>
<path d="M8.32533 14.9827C12.0026 14.9827 14.9837 12.0016 14.9837 8.32435C14.9837 4.64705 12.0026 1.66602 8.32533 1.66602C4.64803 1.66602 1.66699 4.64705 1.66699 8.32435C1.66699 12.0016 4.64803 14.9827 8.32533 14.9827Z" stroke="#171717" stroke-width="1.3" stroke-linecap="round" stroke-linejoin="round"/>
<path d="M10.8164 16.5673C11.5664 17.6257 12.7914 18.3173 14.1914 18.3173C16.4664 18.3173 18.3164 16.4673 18.3164 14.1923C18.3164 12.809 17.6331 11.584 16.5914 10.834" stroke="#171717" stroke-width="1.3" stroke-linecap="round" stroke-linejoin="round"/>
</svg>
