<svg width="20" height="20" viewBox="0 0 20 20" fill="none" xmlns="http://www.w3.org/2000/svg">
<path d="M1 3.05658C1 2.63054 1.34538 2.28516 1.77143 2.28516H18.2285C18.6545 2.28516 18.9999 2.63054 18.9999 3.05658C18.9999 3.48262 18.6545 3.82801 18.2285 3.82801H1.77143C1.34538 3.82801 1 3.48262 1 3.05658Z" fill="#272727"/>
<path d="M9.22852 7.68549C9.22852 7.25944 9.57391 6.91406 9.99994 6.91406H18.2285C18.6545 6.91406 18.9999 7.25944 18.9999 7.68549C18.9999 8.11152 18.6545 8.45691 18.2285 8.45691H9.99994C9.57391 8.45691 9.22852 8.11152 9.22852 7.68549Z" fill="#272727"/>
<path d="M9.22852 12.3144C9.22852 11.8884 9.57391 11.543 9.99994 11.543H18.2285C18.6545 11.543 18.9999 11.8884 18.9999 12.3144C18.9999 12.7404 18.6545 13.0858 18.2285 13.0858H9.99994C9.57391 13.0858 9.22852 12.7404 9.22852 12.3144Z" fill="#272727"/>
<path d="M1 16.9413C1 16.5153 1.34538 16.1699 1.77143 16.1699H18.2285C18.6545 16.1699 18.9999 16.5153 18.9999 16.9413C18.9999 17.3674 18.6545 17.7128 18.2285 17.7128H1.77143C1.34538 17.7128 1 17.3674 1 16.9413Z" fill="#272727"/>
<path d="M6.25966 6.75491C6.50493 6.89085 6.65712 7.1492 6.65712 7.42963V12.5725C6.65712 12.8528 6.50493 13.1112 6.25966 13.2472C6.01438 13.3832 5.71464 13.3753 5.47684 13.2266L1.36257 10.6552C1.13702 10.5142 1 10.267 1 10.001C1 9.73506 1.13702 9.48789 1.36257 9.34688L5.47684 6.77546C5.71464 6.62683 6.01438 6.61896 6.25966 6.75491ZM3.22695 10.001L5.11427 11.1806V8.82148L3.22695 10.001Z" fill="#272727"/>
</svg>
