<svg width="20" height="20" viewBox="0 0 20 20" fill="none" xmlns="http://www.w3.org/2000/svg">
<path d="M16.6663 8.00065C16.6663 4.66732 15.333 3.33398 11.9997 3.33398H7.99967C4.66634 3.33398 3.33301 4.66732 3.33301 8.00065V12.0007C3.33301 15.334 4.66634 16.6673 7.99967 16.6673" stroke="#171717" stroke-width="1.3" stroke-linecap="round" stroke-linejoin="round"/>
<path d="M13.6247 6.66732C13.1663 6.08398 12.3997 5.83398 11.2497 5.83398H8.74967C6.66634 5.83398 5.83301 6.66732 5.83301 8.75065V11.2507C5.83301 12.4007 6.08301 13.1673 6.65801 13.6257" stroke="#171717" stroke-width="1.3" stroke-linecap="round" stroke-linejoin="round"/>
<path d="M6.6748 3.33268V1.66602" stroke="#171717" stroke-width="1.3" stroke-linecap="round" stroke-linejoin="round"/>
<path d="M10 3.33268V1.66602" stroke="#171717" stroke-width="1.5" stroke-linecap="round" stroke-linejoin="round"/>
<path d="M13.333 3.33268V1.66602" stroke="#171717" stroke-width="1.5" stroke-linecap="round" stroke-linejoin="round"/>
<path d="M16.667 6.66602H18.3337" stroke="#171717" stroke-width="1.5" stroke-linecap="round" stroke-linejoin="round"/>
<path d="M6.6748 16.666V18.3327" stroke="#171717" stroke-width="1.5" stroke-linecap="round" stroke-linejoin="round"/>
<path d="M1.66699 6.66602H3.33366" stroke="#171717" stroke-width="1.5" stroke-linecap="round" stroke-linejoin="round"/>
<path d="M1.66699 10H3.33366" stroke="#171717" stroke-width="1.5" stroke-linecap="round" stroke-linejoin="round"/>
<path d="M1.66699 13.334H3.33366" stroke="#171717" stroke-width="1.5" stroke-linecap="round" stroke-linejoin="round"/>
<path d="M13.9246 15.4918C14.6564 15.4918 15.2496 14.8986 15.2496 14.1668C15.2496 13.435 14.6564 12.8418 13.9246 12.8418C13.1928 12.8418 12.5996 13.435 12.5996 14.1668C12.5996 14.8986 13.1928 15.4918 13.9246 15.4918Z" stroke="#171717" stroke-width="1.5" stroke-miterlimit="10" stroke-linecap="round" stroke-linejoin="round"/>
<path d="M9.50879 14.5493V13.7743C9.50879 13.316 9.88379 12.941 10.3421 12.941C11.1421 12.941 11.4671 12.3743 11.0671 11.6826C10.8338 11.2826 10.9755 10.766 11.3755 10.541L12.1338 10.0993C12.4838 9.89096 12.9338 10.016 13.1421 10.366L13.1921 10.4493C13.5921 11.141 14.2421 11.141 14.6421 10.4493L14.6921 10.366C14.9005 10.016 15.3505 9.89929 15.7005 10.0993L16.4588 10.541C16.8588 10.7743 17.0005 11.2826 16.7671 11.6826C16.3671 12.3743 16.6921 12.941 17.4921 12.941C17.9505 12.941 18.3255 13.316 18.3255 13.7743V14.5493C18.3255 15.0076 17.9505 15.3826 17.4921 15.3826C16.6921 15.3826 16.3671 15.9493 16.7671 16.641C17.0005 17.041 16.8588 17.5576 16.4588 17.7826L15.7005 18.2243C15.3505 18.4326 14.9005 18.3076 14.6921 17.9576L14.6421 17.8743C14.2421 17.1826 13.5921 17.1826 13.1921 17.8743L13.1421 17.9576C12.9338 18.3076 12.4838 18.4243 12.1338 18.2243L11.3755 17.7826C10.9755 17.5493 10.8338 17.041 11.0671 16.641C11.4671 15.9493 11.1421 15.3826 10.3421 15.3826C9.88379 15.391 9.50879 15.016 9.50879 14.5493Z" stroke="#171717" stroke-width="1.5" stroke-miterlimit="10" stroke-linecap="round" stroke-linejoin="round"/>
</svg>
